<?xml version="1.0" encoding="UTF-8"?>
<svg width="500" height="500" version="1.1" viewBox="0 0 500.00001 500.00001" xmlns="http://www.w3.org/2000/svg">
 <g transform="translate(0 -552.36)">
  <rect y="552.36" width="500" height="500" ry="0" fill="#00b2c6"/>
 </g>
 <ellipse cx="250" cy="460.46" rx="129.55" ry="14.228" fill-opacity=".033981"/>
 <g transform="matrix(.9084 0 0 .9084 11.017 -.70391)" fill="#dede8e">
  <path d="m228.58 275.99a34.5 34.5 0 0 0 34.5 34.5 34.5 34.5 0 0 0 34.5 -34.5h-69z"/>
  <circle cx="263.08" cy="310.49" r="18.562"/>
 </g>
 <path d="m223.02 444.85s15.839-49.147 18.264-74.649c4.1693-43.835-6.6416-131.93-6.6416-131.93h30.718s-10.811 88.097-6.6416 131.93c2.4256 25.502 18.264 74.649 18.264 74.649h-26.981z" fill="#dede8e"/>
 <rect x="54.838" y="222.91" width="390.32" height="30.717" fill="#f1f1a0"/>
 <rect transform="scale(1,-1)" x="169.9" y="-459.08" width="160.21" height="15.359" fill="#f1f1a0"/>
</svg>
